<svg width="107" height="32" viewBox="0 0 107 32" fill="none" xmlns="http://www.w3.org/2000/svg">
<path d="M99.5271 13.4062V11.0956H98.8112V10.5843H100.819V11.0956H100.114V13.4062H99.5271ZM101.11 13.4062V10.5843H101.678L102.735 11.9858H102.469L103.496 10.5843H104.064V13.4062H103.477V11.232L103.712 11.285L102.625 12.6865H102.549L101.5 11.285L101.697 11.232V13.4062H101.11Z" fill="white"/>
<g clip-path="url(#clip0_14_191)">
<path fill-rule="evenodd" clip-rule="evenodd" d="M23.3076 9.69258C23.5915 9.6459 23.8816 9.7372 24.0883 9.93813C26.4922 12.2756 27.8161 15.404 27.8161 18.7471C27.8161 25.5263 22.3011 31.0417 15.5222 31.0417C9.91467 31.0417 5.02293 27.2452 3.62635 21.8095C3.36171 20.7782 3.22754 19.7479 3.22754 18.7471C3.22754 16.7824 3.6865 14.8938 4.59168 13.1338C5.48249 11.4035 6.79237 9.88841 8.37986 8.75181C8.38908 8.7452 8.39848 8.73877 8.40793 8.73247C8.46645 8.69388 8.52895 8.64816 8.59513 8.59972L8.60188 8.59478C8.60863 8.58985 8.61537 8.58492 8.62211 8.57998C8.64854 8.56064 8.675 8.54127 8.70162 8.52209C11.2258 6.71585 12.8111 3.91578 13.0535 0.838043C13.0774 0.534295 13.2518 0.26274 13.5181 0.114625C13.7845 -0.0334295 14.107 -0.0383404 14.3777 0.101529C17.487 1.70861 19.7697 4.57275 20.6402 7.95952C20.905 8.99063 21.0391 10.0209 21.0391 11.022C21.0391 11.5438 21.0051 12.0642 20.9375 12.5815C21.6156 11.8654 22.1919 11.0553 22.6457 10.1738C22.7776 9.91763 23.0232 9.73908 23.3076 9.69258ZM15.0519 22.5757C17.1299 22.5757 18.8145 20.8911 18.8145 18.813C18.8145 16.735 17.1299 15.0504 15.0519 15.0504C12.9738 15.0504 11.2892 16.735 11.2892 18.813C11.2892 20.8911 12.9738 22.5757 15.0519 22.5757Z" fill="#CBC8FF"/>
</g>
<path d="M42.6043 25.7257C43.5517 25.7257 44.3898 25.5526 45.1185 25.2064C45.8473 24.842 46.403 24.2955 46.7856 23.5667V25.3977H50.6116V10.4763H46.5123V19.1941C46.5123 20.0504 46.2572 20.7428 45.7471 21.2711C45.2369 21.7812 44.5811 22.0363 43.7794 22.0363C42.9778 22.0363 42.3219 21.7812 41.8118 21.2711C41.3016 20.7428 41.0466 20.0504 41.0466 19.1941V10.4763H36.9473V19.5221C36.9473 21.3804 37.4301 22.8835 38.3957 24.0313C39.3795 25.1609 40.7824 25.7257 42.6043 25.7257Z" fill="white"/>
<path d="M53.6077 9.1372H57.707V5.0379H53.6077V9.1372ZM53.6077 25.3977H57.707V10.4763H53.6077V25.3977Z" fill="white"/>
<path d="M62.5104 25.3977H66.6097V14.029H69.8072V10.4763H66.6097V10.2577C66.6097 8.92768 67.384 8.26268 68.9326 8.26268C69.1877 8.26268 69.4883 8.29001 69.8345 8.34467V4.8466C69.4154 4.75551 68.9326 4.70996 68.3861 4.70996C66.5277 4.70996 65.0793 5.19277 64.0408 6.15838C63.0205 7.12399 62.5104 8.49042 62.5104 10.2577V10.4763H59.9962V14.029H62.5104V25.3977Z" fill="white"/>
<path d="M71.9157 25.3977H76.015V17.3631C76.015 16.2517 76.3247 15.3955 76.9442 14.7942C77.5636 14.1748 78.3744 13.865 79.3764 13.865H80.6609V10.3123H79.7864C78.8754 10.3123 78.0647 10.4854 77.3541 10.8316C76.6618 11.1595 76.1243 11.7881 75.7417 12.7172V10.4763H71.9157V25.3977Z" fill="white"/>
<path d="M84.7805 31.4647C87.5133 31.4647 89.4901 29.9069 90.7108 26.7915L97.1057 10.4763H92.7058L89.1804 20.0686L85.655 10.4763H81.2551L87.1307 25.3977L86.8574 26.0263C86.6388 26.5182 86.3564 26.9555 86.0103 27.3381C85.6641 27.7207 85.0902 27.912 84.2885 27.912C83.6327 27.912 83.0132 27.8209 82.4302 27.6387V31.0001C82.7399 31.1641 83.0952 31.2825 83.496 31.3554C83.9151 31.4282 84.3432 31.4647 84.7805 31.4647Z" fill="white"/>
<defs>
<clipPath id="clip0_14_191">
<rect width="31.0417" height="31.0417" fill="white"/>
</clipPath>
</defs>
</svg>
