<svg width="32" height="32" viewBox="0 0 32 32" fill="none" xmlns="http://www.w3.org/2000/svg">
<g clip-path="url(#clip0_18_1343)">
<path fill-rule="evenodd" clip-rule="evenodd" d="M23.8076 9.69258C24.0915 9.6459 24.3816 9.7372 24.5883 9.93813C26.9922 12.2756 28.3161 15.404 28.3161 18.7471C28.3161 25.5263 22.8011 31.0417 16.0222 31.0417C10.4147 31.0417 5.52293 27.2452 4.12635 21.8095C3.86171 20.7782 3.72754 19.7479 3.72754 18.7471C3.72754 16.7824 4.1865 14.8938 5.09168 13.1338C5.98249 11.4035 7.29237 9.88841 8.87986 8.75181C8.88908 8.7452 8.89848 8.73877 8.90793 8.73247C8.96645 8.69389 9.02893 8.64817 9.0951 8.59974L9.10188 8.59478C9.10861 8.58986 9.11533 8.58494 9.12206 8.58002C9.14851 8.56066 9.17499 8.54128 9.20162 8.52209C11.7258 6.71585 13.3111 3.91578 13.5535 0.838043C13.5774 0.534295 13.7518 0.26274 14.0181 0.114625C14.2845 -0.0334295 14.607 -0.0383404 14.8777 0.101529C17.987 1.70861 20.2697 4.57275 21.1402 7.95952C21.405 8.99063 21.5391 10.0209 21.5391 11.022C21.5391 11.5438 21.5051 12.0642 21.4375 12.5815C22.1156 11.8654 22.6919 11.0553 23.1457 10.1738C23.2776 9.91763 23.5232 9.73908 23.8076 9.69258ZM15.5519 22.5757C17.6299 22.5757 19.3145 20.8911 19.3145 18.813C19.3145 16.735 17.6299 15.0504 15.5519 15.0504C13.4738 15.0504 11.7892 16.735 11.7892 18.813C11.7892 20.8911 13.4738 22.5757 15.5519 22.5757Z" fill="#6359E9"/>
</g>
<defs>
<clipPath id="clip0_18_1343">
<rect width="31.0417" height="31.0417" fill="white" transform="translate(0.5)"/>
</clipPath>
</defs>
</svg>
